<?xml version="1.0" encoding="UTF-8"?>
<svg xmlns="http://www.w3.org/2000/svg" viewBox="0 0 1600 900" role="img" aria-labelledby="HS06-title HS06-desc">
  <title id="HS06-title">Voices at the Site</title>
  <desc id="HS06-desc">Color concept card for Voices at the Site.</desc>
  <defs>
    <linearGradient id="HS06-bg" x1="0%" y1="0%" x2="100%" y2="100%">
      <stop offset="0%" stop-color="#0f172a" />
      <stop offset="36%" stop-color="#1e293b" />
      <stop offset="72%" stop-color="#334155" />
      <stop offset="100%" stop-color="#60a5fa" />
    </linearGradient>
    <pattern id="HS06-dots" width="26" height="26" patternUnits="userSpaceOnUse">
      <circle cx="4" cy="4" r="2.3" fill="rgba(255,255,255,0.15)" />
      <circle cx="20" cy="18" r="1.8" fill="rgba(255,255,255,0.13)" />
      <circle cx="12" cy="12" r="1.2" fill="rgba(255,255,255,0.11)" />
    </pattern>
  </defs>

  <rect width="1600" height="900" fill="url(#HS06-bg)" />
  <rect width="1600" height="900" fill="url(#HS06-dots)" />
  <rect x="848" y="74" width="706" height="752" rx="42" fill="rgba(255,255,255,0.08)" />
  <circle cx="1240" cy="230" r="242" fill="rgba(255,255,255,0.08)" />
  <circle cx="1240" cy="230" r="176" fill="rgba(255,255,255,0.06)" />
  <ellipse cx="1180" cy="770" rx="360" ry="180" fill="rgba(255,255,255,0.09)" />
  <ellipse cx="320" cy="790" rx="420" ry="180" fill="rgba(0,0,0,0.14)" />

  <rect x="80" y="82" width="740" height="736" rx="28" fill="rgba(0,0,0,0.26)" />
  <rect x="94" y="96" width="712" height="708" rx="22" fill="rgba(255,255,255,0.09)" />

  <text x="132" y="176" fill="rgba(255,255,255,0.92)" font-family="Trebuchet MS, Segoe UI, Arial, sans-serif" font-size="52" font-weight="700">HS06</text>
  <text x="132" y="262" fill="rgba(255,255,255,0.98)" font-family="Trebuchet MS, Segoe UI, Arial, sans-serif" font-size="66" font-weight="800">Voices at the Site</text>
  <text x="132" y="330" fill="rgba(255,255,255,0.86)" font-family="Trebuchet MS, Segoe UI, Arial, sans-serif" font-size="38" font-weight="600">Storytelling with roles</text>

  <g transform="translate(126 408)">
    <rect x="0" y="0" width="520" height="54" rx="12" fill="rgba(255,255,255,0.14)" />
    <text x="22" y="37" fill="rgba(255,255,255,0.92)" font-family="Trebuchet MS, Segoe UI, Arial, sans-serif" font-size="28" font-weight="700">Gradual Improvement Path</text>
    <g fill="rgba(255,255,255,0.86)" font-family="Trebuchet MS, Segoe UI, Arial, sans-serif" font-size="26" font-weight="700">
      <text x="0" y="118">01 Starter</text>
      <text x="0" y="168">02 Better</text>
      <text x="0" y="218">03 Advanced</text>
      <text x="0" y="268">04 Mastery</text>
    </g>
    <path d="M194 112 H468 M194 162 H468 M194 212 H468 M194 262 H468" stroke="rgba(255,255,255,0.58)" stroke-width="5" stroke-linecap="round" />
    <circle cx="194" cy="112" r="8" fill="rgba(255,255,255,0.94)" />
    <circle cx="194" cy="162" r="8" fill="rgba(255,255,255,0.94)" />
    <circle cx="194" cy="212" r="8" fill="rgba(255,255,255,0.94)" />
    <circle cx="194" cy="262" r="8" fill="rgba(255,255,255,0.94)" />
  </g>

  
      <g transform="translate(950 224)">
        <rect x="36" y="82" width="126" height="90" rx="18" fill="rgba(255,255,255,0.68)" />
        <path d="M82 172 L96 204 L126 172 Z" fill="rgba(255,255,255,0.68)" />
        <rect x="168" y="122" width="148" height="110" rx="18" fill="rgba(255,255,255,0.42)" />
        <path d="M260 232 L280 264 L300 232 Z" fill="rgba(255,255,255,0.42)" />
        <path d="M70 112 Q88 84 106 112 T142 112" stroke="#0f172a" stroke-width="6" fill="none" />
        <path d="M202 160 Q228 120 254 160 T306 160" stroke="rgba(255,255,255,0.84)" stroke-width="6" fill="none" />
      </g>
</svg>
