<?xml version="1.0" encoding="UTF-8"?>
<svg xmlns="http://www.w3.org/2000/svg" viewBox="0 0 1600 900" role="img" aria-labelledby="HS08-title HS08-desc">
  <title id="HS08-title">Fact or Legend Lab</title>
  <desc id="HS08-desc">Color concept card for Fact or Legend Lab.</desc>
  <defs>
    <linearGradient id="HS08-bg" x1="0%" y1="0%" x2="100%" y2="100%">
      <stop offset="0%" stop-color="#3b0a45" />
      <stop offset="36%" stop-color="#6a0dad" />
      <stop offset="72%" stop-color="#9b5de5" />
      <stop offset="100%" stop-color="#f15bb5" />
    </linearGradient>
    <pattern id="HS08-dots" width="26" height="26" patternUnits="userSpaceOnUse">
      <circle cx="4" cy="4" r="2.3" fill="rgba(255,255,255,0.15)" />
      <circle cx="20" cy="18" r="1.8" fill="rgba(255,255,255,0.13)" />
      <circle cx="12" cy="12" r="1.2" fill="rgba(255,255,255,0.11)" />
    </pattern>
  </defs>

  <rect width="1600" height="900" fill="url(#HS08-bg)" />
  <rect width="1600" height="900" fill="url(#HS08-dots)" />
  <rect x="848" y="74" width="706" height="752" rx="42" fill="rgba(255,255,255,0.08)" />
  <circle cx="1240" cy="230" r="242" fill="rgba(255,255,255,0.08)" />
  <circle cx="1240" cy="230" r="176" fill="rgba(255,255,255,0.06)" />
  <ellipse cx="1180" cy="770" rx="360" ry="180" fill="rgba(255,255,255,0.09)" />
  <ellipse cx="320" cy="790" rx="420" ry="180" fill="rgba(0,0,0,0.14)" />

  <rect x="80" y="82" width="740" height="736" rx="28" fill="rgba(0,0,0,0.26)" />
  <rect x="94" y="96" width="712" height="708" rx="22" fill="rgba(255,255,255,0.09)" />

  <text x="132" y="176" fill="rgba(255,255,255,0.92)" font-family="Trebuchet MS, Segoe UI, Arial, sans-serif" font-size="52" font-weight="700">HS08</text>
  <text x="132" y="262" fill="rgba(255,255,255,0.98)" font-family="Trebuchet MS, Segoe UI, Arial, sans-serif" font-size="66" font-weight="800">Fact or Legend Lab</text>
  <text x="132" y="330" fill="rgba(255,255,255,0.86)" font-family="Trebuchet MS, Segoe UI, Arial, sans-serif" font-size="38" font-weight="600">Claim checking workflow</text>

  <g transform="translate(126 408)">
    <rect x="0" y="0" width="520" height="54" rx="12" fill="rgba(255,255,255,0.14)" />
    <text x="22" y="37" fill="rgba(255,255,255,0.92)" font-family="Trebuchet MS, Segoe UI, Arial, sans-serif" font-size="28" font-weight="700">Gradual Improvement Path</text>
    <g fill="rgba(255,255,255,0.86)" font-family="Trebuchet MS, Segoe UI, Arial, sans-serif" font-size="26" font-weight="700">
      <text x="0" y="118">01 Starter</text>
      <text x="0" y="168">02 Better</text>
      <text x="0" y="218">03 Advanced</text>
      <text x="0" y="268">04 Mastery</text>
    </g>
    <path d="M194 112 H468 M194 162 H468 M194 212 H468 M194 262 H468" stroke="rgba(255,255,255,0.58)" stroke-width="5" stroke-linecap="round" />
    <circle cx="194" cy="112" r="8" fill="rgba(255,255,255,0.94)" />
    <circle cx="194" cy="162" r="8" fill="rgba(255,255,255,0.94)" />
    <circle cx="194" cy="212" r="8" fill="rgba(255,255,255,0.94)" />
    <circle cx="194" cy="262" r="8" fill="rgba(255,255,255,0.94)" />
  </g>

  
      <g transform="translate(956 228)">
        <circle cx="118" cy="148" r="72" fill="none" stroke="rgba(255,255,255,0.8)" stroke-width="10" />
        <rect x="164" y="198" width="74" height="22" rx="11" transform="rotate(38 164 198)" fill="rgba(255,255,255,0.76)" />
        <path d="M270 96 L314 142 L270 188 L228 142 Z" fill="rgba(255,255,255,0.16)" stroke="rgba(255,255,255,0.72)" stroke-width="5" />
        <path d="M86 150 L110 172 L152 126" stroke="rgba(255,255,255,0.86)" stroke-width="9" fill="none" stroke-linecap="round" stroke-linejoin="round" />
      </g>
</svg>
