<?xml version="1.0" encoding="UTF-8"?>
<svg xmlns="http://www.w3.org/2000/svg" viewBox="0 0 1600 900" role="img" aria-labelledby="HS10-title HS10-desc">
  <title id="HS10-title">Then-and-Now Lens</title>
  <desc id="HS10-desc">Color concept card for Then-and-Now Lens.</desc>
  <defs>
    <linearGradient id="HS10-bg" x1="0%" y1="0%" x2="100%" y2="100%">
      <stop offset="0%" stop-color="#14213d" />
      <stop offset="36%" stop-color="#1d3557" />
      <stop offset="72%" stop-color="#457b9d" />
      <stop offset="100%" stop-color="#a8dadc" />
    </linearGradient>
    <pattern id="HS10-dots" width="26" height="26" patternUnits="userSpaceOnUse">
      <circle cx="4" cy="4" r="2.3" fill="rgba(255,255,255,0.15)" />
      <circle cx="20" cy="18" r="1.8" fill="rgba(255,255,255,0.13)" />
      <circle cx="12" cy="12" r="1.2" fill="rgba(255,255,255,0.11)" />
    </pattern>
  </defs>

  <rect width="1600" height="900" fill="url(#HS10-bg)" />
  <rect width="1600" height="900" fill="url(#HS10-dots)" />
  <rect x="848" y="74" width="706" height="752" rx="42" fill="rgba(255,255,255,0.08)" />
  <circle cx="1240" cy="230" r="242" fill="rgba(255,255,255,0.08)" />
  <circle cx="1240" cy="230" r="176" fill="rgba(255,255,255,0.06)" />
  <ellipse cx="1180" cy="770" rx="360" ry="180" fill="rgba(255,255,255,0.09)" />
  <ellipse cx="320" cy="790" rx="420" ry="180" fill="rgba(0,0,0,0.14)" />

  <rect x="80" y="82" width="740" height="736" rx="28" fill="rgba(0,0,0,0.26)" />
  <rect x="94" y="96" width="712" height="708" rx="22" fill="rgba(255,255,255,0.09)" />

  <text x="132" y="176" fill="rgba(255,255,255,0.92)" font-family="Trebuchet MS, Segoe UI, Arial, sans-serif" font-size="52" font-weight="700">HS10</text>
  <text x="132" y="262" fill="rgba(255,255,255,0.98)" font-family="Trebuchet MS, Segoe UI, Arial, sans-serif" font-size="66" font-weight="800">Then-and-Now Lens</text>
  <text x="132" y="330" fill="rgba(255,255,255,0.86)" font-family="Trebuchet MS, Segoe UI, Arial, sans-serif" font-size="38" font-weight="600">Past versus present views</text>

  <g transform="translate(126 408)">
    <rect x="0" y="0" width="520" height="54" rx="12" fill="rgba(255,255,255,0.14)" />
    <text x="22" y="37" fill="rgba(255,255,255,0.92)" font-family="Trebuchet MS, Segoe UI, Arial, sans-serif" font-size="28" font-weight="700">Gradual Improvement Path</text>
    <g fill="rgba(255,255,255,0.86)" font-family="Trebuchet MS, Segoe UI, Arial, sans-serif" font-size="26" font-weight="700">
      <text x="0" y="118">01 Starter</text>
      <text x="0" y="168">02 Better</text>
      <text x="0" y="218">03 Advanced</text>
      <text x="0" y="268">04 Mastery</text>
    </g>
    <path d="M194 112 H468 M194 162 H468 M194 212 H468 M194 262 H468" stroke="rgba(255,255,255,0.58)" stroke-width="5" stroke-linecap="round" />
    <circle cx="194" cy="112" r="8" fill="rgba(255,255,255,0.94)" />
    <circle cx="194" cy="162" r="8" fill="rgba(255,255,255,0.94)" />
    <circle cx="194" cy="212" r="8" fill="rgba(255,255,255,0.94)" />
    <circle cx="194" cy="262" r="8" fill="rgba(255,255,255,0.94)" />
  </g>

  
      <g transform="translate(946 232)">
        <rect x="30" y="82" width="140" height="204" rx="14" fill="rgba(255,255,255,0.24)" />
        <rect x="178" y="82" width="140" height="204" rx="14" fill="rgba(255,255,255,0.58)" />
        <path d="M80 250 L98 210 L124 238 L154 186" stroke="rgba(255,255,255,0.8)" stroke-width="8" fill="none" stroke-linecap="round" />
        <path d="M224 250 L242 198 L266 224 L298 158" stroke="#14213d" stroke-width="8" fill="none" stroke-linecap="round" />
        <path d="M173 86 V286" stroke="rgba(255,255,255,0.84)" stroke-width="6" />
      </g>
</svg>
